# xmcd
#
# Track frame offsets: 
#        150
#        12435
#        28525
#        51625
#        71035
#        90620
#        105852
#        115240
#        131545
#        152960
#        168735
#        182477
#        194885
#
# Disc length: 2809 seconds
#
# Revision: 3
# Processed by: cddbd v1.4PL0 Copyright (c) Steve Scherf et al.
# Submitted via: ExactAudioCopy v0.90b4
#
DISCID=b70af70d
DTITLE=Linoleum - Dissent
DYEAR=1997
DGENRE=Rock
TTITLE0=Marquis
TTITLE1=Dissent
TTITLE2=Dangerous Shoes
TTITLE3=On A Tuesday
TTITLE4=Stay Awhile
TTITLE5=Restriction
TTITLE6=Ray Liotta
TTITLE7=She's Sick
TTITLE8=Twisted
TTITLE9=Beds
TTITLE10=Unresolved
TTITLE11=Smear
TTITLE12=Ether
EXTD=Linoleum are\n * caroline fich - vocals, guitar\n * paul jones - 
EXTD=guitars\n * dave nice - drums\n * emma tornero - bass\n\nproduced
EXTD=and mixed by paul q. kolderie/sean slade\n\n
EXTT0=finch and jones
EXTT1=finch and jones
EXTT2=finch and jones
EXTT3=finch and jones
EXTT4=finch
EXTT5=finch and jones
EXTT6=finch and jones
EXTT7=finch and jones
EXTT8=finch and jones
EXTT9=finch
EXTT10=finch and jones
EXTT11=finch and jones
EXTT12=finch
PLAYORDER=
